<svg xmlns="http://www.w3.org/2000/svg" version="1.1" xmlns:xlink="http://www.w3.org/1999/xlink" xmlns:svgjs="http://svgjs.dev/svgjs" width="1440" height="560" preserveAspectRatio="none" viewBox="0 0 1440 560"><g mask="url(&quot;#SvgjsMask1570&quot;)" fill="none"><rect width="1440" height="560" x="0" y="0" fill="url(&quot;#SvgjsLinearGradient1571&quot;)"></rect><path d="M1440 0L1321.63 0L1440 237.16z" fill="rgba(255, 255, 255, .1)"></path><path d="M1321.63 0L1440 237.16L1440 264.57L978.3100000000002 0z" fill="rgba(255, 255, 255, .075)"></path><path d="M978.31 0L1440 264.57L1440 421.46L546.1299999999999 0z" fill="rgba(255, 255, 255, .05)"></path><path d="M546.13 0L1440 421.46L1440 485.17999999999995L192.05 0z" fill="rgba(255, 255, 255, .025)"></path><path d="M0 560L495.91 560L0 334.09000000000003z" fill="rgba(0, 0, 0, .1)"></path><path d="M0 334.09000000000003L495.91 560L587.3100000000001 560L0 319.68z" fill="rgba(0, 0, 0, .075)"></path><path d="M0 319.68L587.3100000000001 560L664.9300000000001 560L0 302.97z" fill="rgba(0, 0, 0, .05)"></path><path d="M0 302.97L664.9300000000001 560L790.94 560L0 167.58000000000004z" fill="rgba(0, 0, 0, .025)"></path></g><defs><mask id="SvgjsMask1570"><rect width="1440" height="560" fill="#ffffff"></rect></mask><linearGradient x1="15.28%" y1="-39.29%" x2="84.72%" y2="139.29%" gradientUnits="userSpaceOnUse" id="SvgjsLinearGradient1571"><stop stop-color="rgba(38, 71, 73, 1)" offset="0"></stop><stop stop-color="rgba(0, 6, 13, 1)" offset="1"></stop></linearGradient></defs></svg>